<svg xmlns="http://www.w3.org/2000/svg" fill="#181717" viewBox="0 0 24 24"><path d="M12 .5C5.65.5.5 5.65.5 12c0 5.08 3.29 9.39 7.86 10.91.58.11.79-.25.79-.55v-1.94c-3.2.7-3.87-1.38-3.87-1.38-.53-1.36-1.3-1.73-1.3-1.73-1.06-.73.08-.72.08-.72 1.17.08 1.79 1.2 1.79 1.2 1.04 1.78 2.73 1.27 3.4.97.1-.75.4-1.27.73-1.56-2.56-.29-5.26-1.28-5.26-5.69 0-1.26.45-2.3 1.2-3.11-.12-.3-.52-1.5.12-3.14 0 0 .98-.31 3.2 1.2a11.12 11.12 0 015.82 0c2.21-1.51 3.19-1.2 3.19-1.2.64 1.64.24 2.84.12 3.14.75.81 1.2 1.85 1.2 3.11 0 4.42-2.7 5.4-5.27 5.68.41.35.78 1.03.78 2.08v3.1c0 .3.21.67.8.55A10.99 10.99 0 0023.5 12C23.5 5.65 18.35.5 12 .5z"/></svg>